<svg width="28" height="28" viewBox="0 0 28 28" fill="none" xmlns="http://www.w3.org/2000/svg">
<path d="M16.2999 3.04348C16.2999 4.48827 15.2317 5.58696 13.9999 5.58696C12.7681 5.58696 11.6999 4.48827 11.6999 3.04348C11.6999 1.59869 12.7681 0.5 13.9999 0.5C15.2317 0.5 16.2999 1.59869 16.2999 3.04348Z" fill="#FBE62F" stroke="black"/>
<path d="M17.7001 24.3477C17.7001 26.0253 16.1114 27.4999 14.0001 27.4999C11.8887 27.4999 10.3001 26.0253 10.3001 24.3477C10.3001 22.6702 11.8887 21.1956 14.0001 21.1956C16.1114 21.1956 17.7001 22.6702 17.7001 24.3477Z" fill="#FBE62F" stroke="black"/>
<path d="M0.86701 22.9413C0.58634 22.8074 0.52202 22.7003 0.508334 22.6663C0.50006 22.6457 0.480609 22.5815 0.56163 22.417C0.645097 22.2476 0.80567 22.036 1.05184 21.7777C1.29402 21.5236 1.59515 21.2486 1.93658 20.9494C2.09256 20.8128 2.25709 20.671 2.42668 20.5249C2.98644 20.0425 3.60147 19.5126 4.14702 18.9606C4.8555 18.2437 5.50891 17.4307 5.79909 16.5433C6.17487 15.3942 6.27617 14.1266 6.37193 12.9282C6.38135 12.8104 6.39071 12.6932 6.40027 12.577C6.50971 11.2461 6.64543 10.0127 7.11608 8.94874C8.09434 6.73722 10.2087 4.13209 13.998 4.15222C16.0127 4.16292 17.4831 4.76455 18.5681 5.64148C19.6606 6.52453 20.3921 7.71132 20.8781 8.93147C21.267 9.90793 21.424 11.2078 21.5682 12.6005C21.5786 12.7016 21.589 12.8031 21.5994 12.9051C21.7287 14.1687 21.8635 15.4871 22.2013 16.5406C22.4867 17.4307 23.1386 18.2451 23.8464 18.9625C24.3953 19.5188 25.0153 20.0522 25.5789 20.5371C25.7447 20.6797 25.9056 20.8182 26.0584 20.9518C26.4005 21.2509 26.7024 21.5257 26.9454 21.7797C27.1924 22.0379 27.3537 22.2495 27.4378 22.419C27.5194 22.5837 27.4998 22.6475 27.4919 22.6673C27.4786 22.7005 27.4151 22.8074 27.1343 22.9413C26.8785 23.0633 26.3246 23.1954 25.4754 23.3154C24.6478 23.4324 23.5977 23.5308 22.3943 23.61C19.9888 23.7683 16.9968 23.8477 14.0006 23.8477C11.0045 23.8477 8.01245 23.7683 5.60697 23.61C4.40361 23.5308 3.35349 23.4324 2.5259 23.3154C1.67673 23.1954 1.12283 23.0633 0.86701 22.9413Z" fill="#FBE62F" stroke="black"/>
</svg>
