<svg width="14" height="19" viewBox="0 0 14 19" fill="none" xmlns="http://www.w3.org/2000/svg">
<path d="M0 18.25H-1V19.991L0.503871 19.1138L0 18.25ZM6.75 14.3125L7.25387 13.4487L6.75 13.1548L6.24613 13.4487L6.75 14.3125ZM13.5 18.25L12.9961 19.1138L14.5 19.991V18.25H13.5ZM0.503871 19.1138L7.25387 15.1763L6.24613 13.4487L-0.503871 17.3862L0.503871 19.1138ZM6.24613 15.1763L12.9961 19.1138L14.0039 17.3862L7.25387 13.4487L6.24613 15.1763ZM14.5 18.25V1.9375H12.5V18.25H14.5ZM14.5 1.9375C14.5 0.471153 13.2788 -0.75 11.8125 -0.75V1.25C12.1743 1.25 12.5 1.57572 12.5 1.9375H14.5ZM11.8125 -0.75H1.6875V1.25H11.8125V-0.75ZM1.6875 -0.75C0.17248 -0.75 -1 0.484767 -1 1.9375H1C1 1.56211 1.30408 1.25 1.6875 1.25V-0.75ZM-1 1.9375V18.25H1V1.9375H-1Z" fill="black"/>
</svg>
