<svg width="190" height="48" viewBox="0 0 190 48" fill="none" xmlns="http://www.w3.org/2000/svg">
<path d="M18.362 36.724C21.0852 38.9026 23.8084 39.9918 23.8862 40.0696L24.1196 40.1474L24.353 40.0696C24.4308 39.9918 27.154 38.9026 29.8772 36.724C33.534 33.8452 35.4792 30.5774 35.4792 27.2318V12.0598H12.7601V26.9206C12.7601 30.4996 14.7052 33.8452 18.362 36.724ZM23.575 32.1335C23.4972 32.0557 23.3416 32.0557 23.186 32.0557C22.6413 32.0557 22.2523 32.0557 21.7855 32.1335C21.3186 32.2113 20.9296 32.2113 20.2294 32.2113C19.9181 32.2113 19.6847 32.2113 19.4513 32.2113V25.0533H19.5291C19.8403 25.0533 20.1516 25.0533 20.5406 25.0533C20.9296 25.0533 21.3186 24.9755 21.7077 24.9755C21.9411 24.9755 22.2523 24.8977 22.4857 24.8977C22.9525 24.8198 23.4194 24.8977 23.4194 24.8977C23.4972 24.8977 23.4972 24.8977 23.4972 24.8977C23.575 24.9755 23.575 32.1335 23.575 32.1335ZM34.3899 27.3096C34.3899 33.534 26.765 37.7355 24.5086 38.8248V33.145C24.5864 33.0672 24.5864 33.0672 24.5864 32.9894C24.6642 32.8338 24.7421 32.756 24.9755 32.756C25.5201 32.756 25.9091 32.756 26.2982 32.8338C26.6872 32.8338 27.2318 32.9116 27.8543 32.9116C28.5545 32.9116 29.0213 32.9116 29.0991 32.9116H29.4882V30.8108H30.344V29.7216H29.566V27.6986H30.4218V26.6094H29.566V24.353H29.1769C29.0213 24.353 28.8657 24.353 28.7101 24.353C28.3989 24.353 28.0877 24.353 27.6986 24.353C27.3874 24.353 26.9984 24.2752 26.5316 24.2752C26.2982 24.2752 25.9869 24.1974 25.7535 24.1974C25.1311 24.1196 24.5864 24.2752 24.5864 24.2752V22.0967H34.4677L34.3899 27.3096ZM24.5086 32.1335V24.9755C24.5864 24.9755 24.5864 24.8977 24.7421 24.8977C24.7421 24.8977 25.2089 24.8198 25.6757 24.8977C25.9869 24.8977 26.2203 24.9755 26.4538 24.9755C26.9206 25.0533 27.3096 25.0533 27.6208 25.0533C28.0099 25.0533 28.2433 25.0533 28.5545 25.0533C28.6323 25.0533 28.7101 25.0533 28.7879 25.0533V32.2113C28.5545 32.2113 28.3211 32.2113 28.0099 32.2113C27.3874 32.2113 26.9206 32.1335 26.4538 32.1335C25.9869 32.0557 25.5979 32.0557 25.0533 32.0557C24.8199 32.0557 24.6642 32.0557 24.5086 32.1335ZM13.7715 13.2269H34.3121V20.9296H13.7715V13.2269ZM13.7715 22.0189H23.575V24.1196C23.4194 24.1196 22.9525 24.0418 22.4857 24.1196C22.1745 24.1196 21.9411 24.1974 21.7077 24.1974C21.2408 24.2752 20.9296 24.2752 20.5406 24.2752C20.1516 24.2752 19.7625 24.2752 19.5291 24.2752C19.2957 24.2752 19.1401 24.2752 18.9845 24.2752H18.5955V26.3759H17.6618V27.4652H18.5955V29.566H17.6618V30.6552H18.5955V32.9894H18.9845C18.9845 32.9894 19.5291 32.9894 20.2294 32.9894C20.9296 32.9894 21.3964 32.9116 21.7855 32.9116C22.2523 32.8338 22.5635 32.8338 23.1081 32.8338C23.3416 32.8338 23.3416 32.9116 23.4972 33.0672C23.4972 33.0672 23.4972 33.145 23.575 33.145V38.8248C21.2408 37.6577 13.7715 33.534 13.7715 27.0762V22.0189Z" fill="white"/>
<path d="M22.4078 14.0049H16.6503V14.3939C16.6503 15.6388 16.6503 17.7395 16.6503 17.8951C16.6503 18.362 16.9615 18.751 17.5061 19.0622C18.2064 19.529 19.2178 20.1515 19.2956 20.1515L19.5291 20.2293L19.7625 20.1515C19.8403 20.1515 20.9295 19.529 21.6298 19.0622C22.4078 18.5176 22.4856 18.0507 22.4856 17.8951C22.4856 17.8173 22.4856 15.95 22.4856 14.3939L22.4078 14.0049ZM17.4283 14.7829H21.552C21.552 15.0942 21.552 15.4832 21.552 15.7944H17.4283C17.4283 15.4832 17.4283 15.172 17.4283 14.7829ZM21.552 17.8173C21.552 18.0507 21.3186 18.2064 21.0852 18.362C20.6183 18.6732 19.8403 19.14 19.5291 19.2956C19.2178 19.0622 18.5176 18.6732 17.973 18.362C17.6617 18.1286 17.4283 17.9729 17.4283 17.7395C17.4283 17.6617 17.4283 17.1949 17.4283 16.5724H21.552C21.552 17.2727 21.552 17.7395 21.552 17.8173Z" fill="white"/>
<path d="M32.1335 13.8494H26.2981V14.2384C26.2981 15.7945 26.2981 17.7396 26.2981 17.8174C26.2981 18.2843 26.6093 18.6733 27.2318 19.0623C27.932 19.5291 29.0213 20.1516 29.0213 20.1516L29.2547 20.2294L29.4881 20.1516C29.5659 20.1516 30.6552 19.5291 31.4332 19.0623C32.2891 18.5177 32.2891 17.973 32.2891 17.8174C32.2891 17.7396 32.2891 15.8723 32.2891 14.2384L32.1335 13.8494ZM31.3554 17.7396C31.3554 17.973 31.122 18.1286 30.8886 18.2843C30.344 18.5955 29.5659 19.0623 29.2547 19.2957C28.9435 19.0623 28.1654 18.6733 27.6986 18.2843C27.543 18.2064 27.154 17.8952 27.154 17.6618C27.154 17.6618 27.154 17.584 27.154 17.4284L29.1769 15.9501L31.4332 17.4284C31.3554 17.6618 31.3554 17.7396 31.3554 17.7396ZM29.0991 15.0942L27.0761 16.5725C27.0761 16.0279 27.0761 15.3277 27.0761 14.7052H31.3554C31.3554 15.3277 31.3554 16.0279 31.3554 16.6503L29.0991 15.0942Z" fill="white"/>
<path d="M25.5201 26.6093L25.9091 26.6872C26.1425 26.6872 26.376 26.765 26.6094 26.765H27.7764V25.9869H26.6094C26.4538 25.9869 26.2203 25.9869 25.9869 25.9091L25.5979 25.8313C25.5201 25.8313 25.3645 25.8313 25.2867 25.8313V26.6093C25.4423 26.6093 25.5201 26.6093 25.5201 26.6093Z" fill="white"/>
<path d="M26.6094 28.0877C26.4538 28.0877 26.2203 28.0877 25.9869 28.0099C25.8313 28.0099 25.6757 28.0099 25.5979 27.9321C25.5201 27.9321 25.3645 27.9321 25.2867 27.9321V28.7102C25.3645 28.7102 25.4423 28.7102 25.5201 28.7102C25.6757 28.7102 25.8313 28.7102 25.9091 28.788C26.1425 28.788 26.376 28.8658 26.5316 28.8658C26.765 28.8658 27.154 28.8658 27.3874 28.8658H27.6986V28.0877H27.3874C27.2318 28.1655 26.9206 28.1655 26.6094 28.0877Z" fill="white"/>
<path d="M26.6094 30.3441C26.4538 30.3441 26.2203 30.3441 25.9869 30.2663C25.8313 30.2663 25.7535 30.2663 25.5979 30.1885C25.5201 30.1885 25.3645 30.1885 25.2867 30.1885V30.9665C25.3645 30.9665 25.4423 30.9665 25.4423 30.9665C25.5979 30.9665 25.7535 30.9665 25.8313 31.0443C26.0647 31.0443 26.2981 31.1221 26.5316 31.1221H26.8428C27.154 31.1221 27.543 31.1221 27.6986 31.1221V30.3441C27.543 30.3441 27.154 30.3441 26.8428 30.3441H26.6094Z" fill="white"/>
<path d="M21.552 26.6871C21.7854 26.6871 21.941 26.6871 22.2522 26.6093C22.4078 26.6093 22.4856 26.6093 22.6412 26.5315C22.719 26.5315 22.7968 26.5315 22.7968 26.5315V25.7534C22.719 25.7534 22.6412 25.7534 22.5634 25.7534C22.4078 25.7534 22.2522 25.7534 22.1744 25.8312C21.941 25.8312 21.7076 25.909 21.552 25.909H20.3849V26.6871H21.552Z" fill="white"/>
<path d="M22.1744 28.0876C21.941 28.0876 21.7076 28.1654 21.552 28.1654H20.3849V28.9434H21.552C21.7854 28.9434 21.941 28.9434 22.2522 28.8656L22.6412 28.7878C22.719 28.7878 22.7968 28.7878 22.7968 28.7878V28.0098C22.719 28.0098 22.6412 28.0098 22.4856 28.0098L22.1744 28.0876Z" fill="white"/>
<path d="M22.1744 30.2663C21.941 30.2663 21.7076 30.3441 21.552 30.3441C21.1629 30.3441 20.6183 30.3441 20.3849 30.3441V31.1221C20.5405 31.1221 21.1629 31.1221 21.552 31.1221C21.7854 31.1221 21.941 31.1221 22.2522 31.0443L22.6412 30.9665C22.719 30.9665 22.7968 30.9665 22.7968 30.9665V30.1885C22.719 30.1885 22.6412 30.1885 22.5634 30.1885L22.1744 30.2663Z" fill="white"/>
<path d="M3.65691 24.1195C4.66838 24.1195 5.29082 23.4971 5.36862 22.33C5.36862 22.0966 5.36863 21.8632 5.29082 21.5519V21.4741H4.43496L4.51277 21.6297C4.59057 21.7854 4.59057 22.0188 4.59057 22.2522C4.59057 22.7968 4.12374 23.1858 3.5013 23.1858C2.87886 23.108 2.48984 22.719 2.48984 22.1744C2.48984 22.0188 2.56764 21.7854 2.72325 21.5519L2.80106 21.3963L1.9452 21.2407V21.3185C1.8674 21.5519 1.78959 21.7854 1.78959 22.0966C1.71179 23.3415 2.33423 24.0417 3.5013 24.1195C3.5013 24.1195 3.57911 24.1195 3.65691 24.1195Z" fill="white"/>
<path d="M3.73463 20.1515C3.96804 20.2293 4.20146 20.2293 4.43487 20.2293C5.21292 20.2293 5.75756 19.7625 5.99097 18.9844C6.14658 18.5176 6.06878 18.0508 5.91317 17.7396C5.67975 17.3505 5.29073 17.0393 4.74609 16.8837C4.51268 16.8059 4.35707 16.8059 4.12365 16.8059C3.3456 16.8059 2.80097 17.2727 2.56755 18.0508C2.25633 19.0623 2.72316 19.8403 3.73463 20.1515ZM3.2678 18.2842C3.42341 17.8174 3.73463 17.7396 4.04585 17.7396C4.20146 17.7396 4.35707 17.7396 4.51268 17.8174C4.9017 17.8952 5.13512 18.1286 5.29073 18.362C5.36853 18.5176 5.36853 18.6732 5.36853 18.9066C5.21292 19.3735 4.9017 19.4513 4.59048 19.4513C4.43487 19.4513 4.27926 19.4513 4.12365 19.3735C3.57902 19.1401 3.11219 18.8288 3.2678 18.2842Z" fill="white"/>
<path d="M7.23592 15.6388L6.06885 15.0163V14.9385C6.22446 14.7051 6.30226 14.7829 6.45787 14.7829L7.62495 14.9385L8.09178 14.0827L6.53568 13.9271C6.45787 13.9271 6.30226 13.9271 6.22446 13.9271C6.22446 13.6158 6.06885 13.3046 5.75763 13.149C5.60202 13.0712 5.44641 12.9934 5.2908 12.9934C4.74616 12.9934 4.43494 13.538 4.20153 14.0827L3.8125 14.8607L6.9247 16.4946L7.23592 15.6388ZM5.44641 14.5495L5.3686 14.6273L4.82397 14.3161L4.90177 14.2383C5.05738 14.0049 5.21299 13.7715 5.44641 13.9271C5.52421 14.0049 5.52421 14.0049 5.52421 14.0827C5.60202 14.2383 5.52421 14.4717 5.44641 14.5495Z" fill="white"/>
<path d="M9.18096 12.6045L7.54705 11.2818L9.8034 11.8265L10.4258 11.0484L7.78047 8.86987L7.23583 9.49231L8.79193 10.815L6.53559 10.2704L5.91315 11.0484L8.63632 13.3048L9.18096 12.6045Z" fill="white"/>
<path d="M13.0712 8.86966L12.5266 8.24722L11.5929 9.02527L11.2039 8.55844L12.0598 7.8582L11.5929 7.23576L10.6593 7.936L10.348 7.54698L11.2817 6.76892L10.8149 6.14648L9.18097 7.46917L11.3595 10.1923L13.0712 8.86966Z" fill="white"/>
<path d="M15.95 7.15797L15.561 6.45773L14.4717 7.08017L13.149 4.66821L12.371 5.13504L14.0827 8.16944L15.95 7.15797Z" fill="white"/>
<path d="M18.8288 5.99092L18.5954 5.29068L17.4283 5.75751L16.4947 3.18994L15.6388 3.42336L16.8837 6.76897L18.8288 5.99092Z" fill="white"/>
<path d="M22.3301 5.44639C22.4079 5.44639 22.4857 5.44639 22.5635 5.44639C23.0304 5.36858 23.4194 5.29078 23.6528 4.97956C23.8862 4.74614 23.964 4.35712 23.8862 3.96809L23.7306 1.78955L22.8748 1.86736L23.0304 3.89029C23.1082 4.59053 22.7969 4.66834 22.5635 4.74614H22.4857C22.2523 4.74614 22.0189 4.66834 21.9411 3.96809L21.7855 1.94516L20.9296 2.02297L21.0074 4.20151C21.0852 4.97956 21.5521 5.44639 22.3301 5.44639Z" fill="white"/>
<path d="M26.3759 3.34565L27.0762 5.52419L28.0876 5.6798L28.5545 2.17858L27.6986 2.10077L27.3874 4.1237L26.6872 1.94516L25.6757 1.78955L25.2089 5.29078L26.0647 5.36858L26.3759 3.34565Z" fill="white"/>
<path d="M31.122 2.95656L30.2662 2.72314L29.2547 5.99096L30.1106 6.30218L31.122 2.95656Z" fill="white"/>
<path d="M35.4791 4.90164L34.7011 4.51261L33.0672 6.22432L33.3784 3.81237L32.6004 3.42334L32.0557 7.08018L32.9116 7.4692L35.4791 4.90164Z" fill="white"/>
<path d="M36.4128 9.88131L36.8796 9.25887L35.8681 8.55863L36.2572 8.01399L37.1908 8.71424L37.6576 8.0918L36.724 7.39155L37.0352 7.00253L38.0467 7.70277L38.5135 7.15814L36.8018 5.83545L34.701 8.55863L36.4128 9.88131Z" fill="white"/>
<path d="M37.8133 11.3596L38.8248 10.5037L38.9026 10.5815C39.0582 10.7372 39.0582 10.815 38.9026 10.9706L38.3579 11.982L38.9804 12.6823L39.6806 11.2818C39.6806 11.204 39.7584 11.1262 39.7584 10.9706C40.0696 11.1262 40.3809 11.0484 40.6921 10.815C41.4701 10.1925 40.8477 9.49227 40.3809 8.94764L39.8362 8.3252L37.1909 10.6593L37.8133 11.3596ZM39.8362 9.57008C39.9918 9.80349 40.1474 9.9591 40.1474 10.1147C40.1474 10.1925 40.1475 10.2703 40.0696 10.2703C39.9918 10.3481 39.914 10.3481 39.914 10.3481C39.7584 10.3481 39.6028 10.1925 39.525 10.0369L39.4472 9.9591L39.8362 9.57008Z" fill="white"/>
<path d="M41.0811 14.1605C40.9255 14.2383 40.6921 14.0827 40.6143 13.9271C40.5365 13.7715 40.4587 13.5381 40.4587 13.2269V13.0713L39.6806 13.4603L39.7584 13.6159C39.8362 13.8493 39.914 14.0827 40.0696 14.3161C40.3808 14.783 40.6921 15.0942 41.1589 15.0942C41.3145 15.0942 41.5479 15.0164 41.7035 14.9386C42.326 14.5496 42.2482 14.0049 42.1704 13.5381C42.0926 13.2269 42.0926 13.0713 42.2482 12.9935C42.326 12.9935 42.4038 12.9157 42.4038 12.9157C42.5594 12.9157 42.6372 13.0713 42.715 13.1491C42.7928 13.3047 42.8706 13.5381 42.9484 13.7715V13.9271L43.6487 13.6159V13.5381C43.5709 13.3047 43.4931 13.0713 43.3374 12.76C42.9484 12.1376 42.326 11.9042 41.7813 12.2932C41.1589 12.6822 41.2367 13.2269 41.3145 13.6159C41.1589 13.8493 41.2367 14.0827 41.0811 14.1605Z" fill="white"/>
<path d="M44.3675 15.1644L41.1257 16.4868L41.4489 17.2793L44.6907 15.9568L44.3675 15.1644Z" fill="white"/>
<path d="M44.6601 18.4399L42.0147 19.0623L42.2481 19.9182L44.8935 19.2957L45.1269 20.1516L45.8272 19.996L45.2047 17.3506L44.5045 17.5062L44.6601 18.4399Z" fill="white"/>
<path d="M42.6371 22.6414L42.715 23.4972L44.0376 23.4194L46.2162 24.5865V23.575L44.8935 22.9526L46.1384 22.2524L46.0606 21.1631L44.0376 22.5636L42.6371 22.6414Z" fill="white"/>
<path d="M4.27925 30.6553L5.0573 30.4219L4.74608 29.3326L5.29071 29.177L5.60193 30.3441L6.30218 30.1107L5.75754 28.1655L2.41193 29.0992L2.64534 29.955L4.04583 29.566L4.27925 30.6553Z" fill="white"/>
<path d="M7.39151 33.5341C7.54712 33.1451 7.46932 32.6782 7.2359 32.2114C6.92468 31.589 6.38005 31.2 5.83541 31.2C5.52419 31.2 5.21297 31.2778 4.90175 31.4334C4.35711 31.6668 4.04589 32.0558 3.89028 32.4448C3.73467 32.8339 3.81248 33.3007 4.04589 33.7675C4.35711 34.39 4.90175 34.7012 5.52419 34.7012C5.83541 34.7012 6.14663 34.6234 6.45785 34.4678C6.92468 34.3122 7.2359 33.9231 7.39151 33.5341ZM6.06883 33.6897C5.83541 33.7675 5.602 33.8453 5.44639 33.8453C5.13516 33.8453 4.90175 33.6897 4.82394 33.4563C4.66833 33.3007 4.66833 33.0673 4.66833 32.9117C4.74614 32.6782 4.97956 32.4448 5.29078 32.2892C5.52419 32.2114 5.6798 32.1336 5.91322 32.1336C6.22444 32.1336 6.45785 32.2892 6.61346 32.5226C6.69127 32.6782 6.69127 32.9117 6.69127 33.0673C6.61346 33.3007 6.38005 33.5341 6.06883 33.6897Z" fill="white"/>
<path d="M9.80335 36.1794L8.24725 37.4243C7.85823 37.7355 7.547 37.8133 7.31359 37.5021C7.23578 37.3465 7.15798 37.2687 7.15798 37.1131C7.15798 36.9574 7.31359 36.724 7.547 36.5684L9.10311 35.3235L8.55847 34.6233L6.84676 35.946C6.45773 36.2572 6.30212 36.5684 6.30212 36.8796C6.30212 37.1909 6.45773 37.5799 6.69115 37.8911C7.00237 38.2801 7.39139 38.5135 7.78042 38.5135C8.09164 38.5135 8.32506 38.3579 8.63628 38.1245L10.348 36.724L9.80335 36.1794Z" fill="white"/>
<path d="M12.76 39.058L11.4373 40.6141L11.9819 38.3578L11.2039 37.7354L9.02533 40.4585L9.64777 41.0032L10.9705 39.3693L10.5036 41.6256L11.2039 42.248L13.4602 39.6027L12.76 39.058Z" fill="white"/>
<path d="M15.3276 40.6922L14.3939 40.2253L12.8378 43.3375L13.7715 43.8044C14.2383 44.0378 14.5495 44.1156 14.9386 44.1156C15.561 44.1156 16.0278 43.8044 16.3391 43.1041C16.8837 42.0927 16.4947 41.3146 15.3276 40.6922ZM15.4832 42.7151C15.3276 43.1041 15.0164 43.2597 14.6273 43.2597C14.4717 43.2597 14.3161 43.2597 14.1605 43.1819L14.0049 43.1041L14.8608 41.3146L15.0942 41.3924C15.3276 41.4702 15.4832 41.7036 15.561 41.9371C15.6388 42.1705 15.6388 42.4817 15.4832 42.7151Z" fill="white"/>
<path d="M17.2728 45.2826L19.3735 45.8273L19.5291 45.127L18.2842 44.8158L18.5176 44.1156L19.6069 44.4268L19.8403 43.7265L18.6733 43.4153L18.8289 42.8707L20.0737 43.1819L20.2294 42.4816L18.1286 41.937L17.2728 45.2826Z" fill="white"/>
<path d="M22.4079 42.715L21.3964 42.6372L21.163 46.1384L22.1745 46.2162C22.2523 46.2162 22.3301 46.2162 22.4079 46.2162C23.575 46.2162 24.1974 45.6716 24.2752 44.5823C24.2752 44.0377 24.1974 43.6487 23.8862 43.3375C23.575 42.9484 23.1082 42.7928 22.4079 42.715ZM22.4079 45.4382H22.1745L22.2523 43.4931H22.4857C22.9525 43.4931 23.4194 43.8821 23.3416 44.5045C23.3416 45.2048 22.7969 45.516 22.4079 45.4382Z" fill="white"/>
<path d="M27.3874 42.4815L26.765 46.1383L27.6986 45.9049L27.8542 45.1268L28.9435 44.8934L29.3325 45.5937L30.2662 45.3602L28.2432 42.248L27.3874 42.4815ZM27.932 44.4266L28.0098 43.4929L28.4767 44.271L27.932 44.4266Z" fill="white"/>
<path d="M30.6552 44.2712L30.9664 45.127L31.8222 44.8158L31.511 43.96L30.6552 44.2712Z" fill="white"/>
<path d="M32.3669 40.7698L31.511 41.2366L33.145 44.271L34.0008 43.8041C35.1679 43.1817 35.4791 42.3259 34.9345 41.3144C34.3898 40.3029 33.534 40.1473 32.3669 40.7698ZM33.7674 43.1039L33.534 43.1817L32.6003 41.47L32.8337 41.3922C32.9893 41.3144 33.145 41.2366 33.3006 41.2366C33.6896 41.2366 33.923 41.47 34.1564 41.7812C34.4676 42.3259 34.1564 42.8705 33.7674 43.1039Z" fill="white"/>
<path d="M35.6347 41.8591L36.1015 42.5593L36.8796 42.0925L36.335 41.3145L35.6347 41.8591Z" fill="white"/>
<path d="M36.9574 37.4243L36.8018 38.747L37.5799 38.8248L37.6577 38.2801L39.2916 39.9918L39.9918 39.3694L37.5021 36.8796L36.9574 37.4243Z" fill="white"/>
<path d="M41.7034 35.5569C41.3922 35.3235 41.081 35.3235 40.692 35.4791C40.692 35.1679 40.5364 34.8566 40.3029 34.701C39.8361 34.3898 39.2915 34.5454 38.9025 35.1679C38.5134 35.7125 38.5134 36.3349 38.9803 36.6461C39.2137 36.8018 39.5249 36.8796 39.8361 36.724C39.8361 37.113 39.9139 37.4242 40.2251 37.5798C40.4586 37.7354 40.6142 37.8132 40.8476 37.8132C41.1588 37.8132 41.5478 37.5798 41.8591 37.1908C42.0925 36.8796 42.1703 36.4905 42.1703 36.2571C42.0925 35.9459 41.9369 35.7125 41.7034 35.5569ZM40.0695 35.7903C39.9139 35.8681 39.8361 35.9459 39.6805 35.9459C39.6027 35.9459 39.6027 35.9459 39.5249 35.8681C39.3693 35.7125 39.4471 35.5569 39.5249 35.4013C39.6027 35.3235 39.6805 35.2457 39.7583 35.2457C39.8361 35.2457 39.9139 35.2457 39.9139 35.3235C39.9917 35.4791 40.0695 35.7125 40.0695 35.7903ZM41.2366 36.724C41.081 36.8796 40.9254 36.9574 40.7698 36.8018C40.6142 36.724 40.6142 36.5683 40.6142 36.3349C40.8476 36.1793 41.081 36.1793 41.2366 36.2571C41.3144 36.3349 41.3144 36.4127 41.3922 36.4905C41.3144 36.5683 41.3144 36.6461 41.2366 36.724Z" fill="white"/>
<path d="M43.2596 32.1335C42.6371 31.8223 42.0925 31.9779 41.7813 32.6004C41.7035 32.756 41.7035 32.9116 41.7035 33.0672C41.47 32.9116 41.3144 32.6004 41.47 32.2891C41.5479 32.1335 41.7035 31.9779 41.7813 31.9001L41.9369 31.8223L41.3144 31.3555L41.2366 31.4333C41.081 31.5889 40.9254 31.8223 40.7698 32.0557C40.6142 32.3669 40.5364 32.756 40.692 33.0672C40.8476 33.6118 41.4701 34.0008 41.9369 34.2343C42.3259 34.4677 42.6371 34.5455 42.9483 34.5455C43.4152 34.5455 43.7264 34.3121 43.9598 33.923C44.271 33.145 44.0376 32.5225 43.2596 32.1335ZM43.2596 33.4562C43.1818 33.534 43.104 33.6118 43.0261 33.6118C42.9483 33.6118 42.8705 33.6118 42.7149 33.534C42.5593 33.4562 42.4037 33.3784 42.4037 33.2228C42.4037 33.145 42.4037 33.0672 42.4037 32.9894C42.4815 32.9116 42.5593 32.8338 42.6371 32.8338C42.7149 32.8338 42.8705 32.8338 42.9483 32.9116C43.104 32.9894 43.1818 33.0672 43.2596 33.2228C43.2596 33.3784 43.2596 33.3784 43.2596 33.4562Z" fill="white"/>
<path d="M44.5045 28.6322C43.8043 28.3988 43.2596 28.71 43.0262 29.4103C43.0262 29.4881 43.0262 29.5659 42.9484 29.5659L42.5594 29.4103L42.9484 28.2432L42.2482 28.0098L41.6257 30.0327L43.5709 30.6551V30.4995C43.5709 30.3439 43.5709 30.1105 43.6487 29.9549C43.7265 29.7993 43.8821 29.4103 44.2711 29.4881C44.6601 29.6437 44.5823 30.0327 44.5045 30.1883C44.4267 30.4217 44.2711 30.5773 44.1933 30.7329L44.1155 30.8886L44.8935 31.122L44.9713 31.0442C45.127 30.8107 45.2048 30.4995 45.2826 30.3439C45.4382 29.9549 45.3604 29.5659 45.2048 29.2546C45.127 28.9434 44.8157 28.71 44.5045 28.6322Z" fill="white"/>
<path d="M6.45782 23.9641C6.45782 33.6119 14.3161 41.548 24.0418 41.548C33.6896 41.548 41.6257 33.6897 41.6257 23.9641C41.6257 14.3162 33.7674 6.38013 24.0418 6.38013C14.3161 6.45793 6.45782 14.3162 6.45782 23.9641ZM23.964 7.08037C33.3006 7.08037 40.9255 14.7053 40.9255 24.0419C40.9255 33.3785 33.3006 41.0034 23.964 41.0034C14.6274 41.0034 7.00246 33.3785 7.00246 24.0419C7.08027 14.6275 14.6274 7.08037 23.964 7.08037Z" fill="white"/>
<path d="M23.964 0C10.7371 0 0 10.7371 0 23.964C0 37.1908 10.7371 47.9279 23.964 47.9279C37.1908 47.9279 47.9279 37.1908 47.9279 23.964C48.0057 10.7371 37.2686 0 23.964 0ZM23.964 47.3833C11.0483 47.3833 0.622441 36.8796 0.622441 24.0418C0.622441 11.1261 11.1261 0.700246 23.964 0.700246C36.8796 0.700246 47.3055 11.2039 47.3055 24.0418C47.3833 36.8796 36.8796 47.3833 23.964 47.3833Z" fill="white"/>
<path d="M69.8689 28.4768L69.5577 29.2548C68.9353 29.566 68.235 29.7994 67.6126 29.955C66.9902 30.1107 66.2899 30.1885 65.5897 30.1885C64.7338 30.1885 63.9558 30.1107 63.1777 29.8772C62.3997 29.6438 61.7772 29.3326 61.2326 28.9436C60.6879 28.5546 60.2211 28.0877 59.9099 27.6209C59.5987 27.1541 59.2874 26.6094 59.1318 25.987C58.9762 25.3646 58.8206 24.7421 58.8206 24.0419C58.8206 22.2523 59.4431 20.7741 60.6879 19.607C61.9328 18.4399 63.6445 17.8953 65.7453 17.8953C66.2899 17.8953 66.7567 17.8953 67.1458 17.9731C67.6126 18.0509 68.0794 18.1287 68.7019 18.2843C69.3243 18.4399 69.7133 18.5177 69.8689 18.5955C69.7133 18.9067 69.6355 19.218 69.5577 19.5292C69.4799 19.996 69.4021 20.5406 69.4021 21.1631H68.8575V20.1516C68.7797 19.607 68.4685 19.2179 67.9238 18.9067C67.3792 18.6733 66.6011 18.5177 65.5119 18.5177C64.7338 18.5177 64.0336 18.5955 63.4889 18.8289C62.9443 18.9845 62.4775 19.2958 62.0106 19.7626C61.6216 20.1516 61.2326 20.6962 60.9992 21.3187C60.7657 21.9411 60.6101 22.7192 60.6101 23.7306C60.6101 25.4424 61.1548 26.765 62.1662 27.7765C63.1777 28.788 64.5782 29.3326 66.2899 29.3326C67.068 29.3326 67.7682 29.2548 68.3906 29.0214C68.8575 28.8658 69.2465 28.6324 69.7133 28.3211L69.8689 28.4768Z" fill="white"/>
<path d="M70.3358 26.1426C70.3358 24.8978 70.7248 23.8863 71.5028 23.1082C72.2809 22.3302 73.2923 21.9412 74.5372 21.9412C75.7043 21.9412 76.638 22.3302 77.416 23.0304C78.1941 23.7307 78.5053 24.7421 78.5053 25.9092C78.5053 26.6873 78.3497 27.4653 77.9606 28.1656C77.5716 28.8658 77.027 29.3326 76.3267 29.7217C75.6265 30.1107 74.8484 30.2663 74.0704 30.2663C73.448 30.2663 72.9033 30.1885 72.4365 29.9551C71.9697 29.7217 71.6584 29.4883 71.3472 29.0992C71.036 28.788 70.8804 28.399 70.7248 28.0878C70.4136 27.4653 70.3358 26.8429 70.3358 26.1426ZM71.8919 25.5202C71.8919 26.2204 71.9697 26.9207 72.2031 27.6209C72.4365 28.3212 72.7477 28.8658 73.2145 29.177C73.6814 29.4883 74.1482 29.6439 74.615 29.6439C75.2375 29.6439 75.7821 29.4104 76.2489 28.8658C76.7158 28.3212 76.8714 27.5431 76.8714 26.5317C76.8714 25.6758 76.7158 24.8978 76.4824 24.2753C76.2489 23.6529 75.8599 23.186 75.4709 22.8748C75.0819 22.6414 74.615 22.4858 74.1482 22.4858C73.448 22.4858 72.9033 22.7192 72.5143 23.2638C72.1253 23.8085 71.8919 24.4309 71.8919 25.5202Z" fill="white"/>
<path d="M78.5831 29.9551V29.4883C79.2055 29.4883 79.5167 29.4883 79.5945 29.4883C79.6723 29.4883 79.7501 29.4104 79.8279 29.4104C79.9058 29.4104 79.9058 29.3326 79.9058 29.2548C79.9836 29.0992 79.9836 28.9436 79.9836 28.6324C79.9836 27.1541 80.0614 26.376 80.0614 26.2982V25.2868C80.0614 24.8199 80.0614 24.3531 80.0614 23.8863C80.0614 23.5751 80.0614 23.3417 79.9836 23.2638C79.9836 23.186 79.9058 23.186 79.8279 23.1082C79.7501 23.1082 79.3611 23.0304 78.7387 23.1082V22.6414C79.8279 22.4858 80.6838 22.2524 81.2284 22.019C81.3062 21.9412 81.384 21.9412 81.4619 21.9412C81.4619 21.9412 81.5397 21.9412 81.5397 22.019C81.5397 22.019 81.5397 22.0968 81.5397 22.1746C81.5397 22.1746 81.5397 22.2524 81.5397 22.3302C81.5397 22.6414 81.4619 23.186 81.4619 23.8863C81.6953 23.5751 81.9287 23.3417 82.1621 23.0304C82.3955 22.7192 82.5511 22.5636 82.6289 22.4858C82.7845 22.3302 83.018 22.2524 83.1736 22.1746C83.407 22.0968 83.6404 22.019 83.8738 22.019C84.1072 22.019 84.3406 22.0968 84.5741 22.1746L84.6519 22.3302C84.5741 23.1082 84.4963 23.7307 84.4963 24.2753H84.0294C83.8738 24.0419 83.7182 23.8085 83.5626 23.6529C83.407 23.4973 83.1736 23.4973 82.9402 23.4973C82.4733 23.4973 82.1621 23.6529 81.8509 24.0419C81.5397 24.4309 81.3841 24.8978 81.3841 25.598V26.4539C81.3841 26.8429 81.384 27.4653 81.4619 28.4768C81.4619 28.788 81.4619 29.0214 81.5397 29.0992C81.5397 29.177 81.6175 29.2548 81.6175 29.3326C81.6175 29.4104 81.6953 29.4104 81.7731 29.4104C81.9287 29.4883 82.3955 29.4883 83.0958 29.5661V30.0329C82.0843 30.0329 81.3062 29.9551 80.606 29.9551C79.9058 29.9551 79.2055 29.9551 78.5831 29.9551Z" fill="white"/>
<path d="M85.1966 29.9549V29.4881H85.9746C86.1303 29.4881 86.2081 29.4881 86.2081 29.4103C86.2859 29.4103 86.2859 29.3325 86.3637 29.2547C86.4415 29.1769 86.4415 28.9435 86.5193 28.6322C86.5193 28.5544 86.5193 27.7764 86.5971 26.2203V25.2088C86.5971 24.742 86.5971 24.2752 86.5971 23.7305C86.5971 23.4193 86.5193 23.1859 86.5193 23.1081C86.5193 23.0303 86.4415 23.0303 86.3637 22.9525C86.2859 22.9525 85.8968 22.8747 85.2744 22.9525V22.4856C86.3637 22.33 87.2195 22.0966 87.7642 21.8632C87.842 21.7854 87.9198 21.7854 87.9976 21.7854C88.0754 21.7854 88.0754 21.7854 88.0754 21.8632C88.0754 21.8632 88.0754 21.941 88.0754 22.0188C88.0754 22.0188 88.0754 22.0966 88.0754 22.1744C88.0754 22.4078 88.0754 22.7969 87.9976 23.4193L89.5537 22.0966C90.0205 21.941 90.4095 21.8632 90.8764 21.8632C91.3432 21.8632 91.7322 21.941 92.1991 22.1744C92.5881 22.33 92.8993 22.5635 93.1327 22.8747C93.3661 23.1859 93.4439 23.4971 93.5217 23.9639C93.5217 24.1974 93.5995 24.8976 93.5995 26.0647V27.543C93.5995 28.2432 93.5995 28.7879 93.6773 29.0213C93.6773 29.1769 93.7552 29.3325 93.833 29.3325C93.9108 29.4103 93.9886 29.4103 94.0664 29.4881H94.9222V29.9549C94.3776 29.9549 93.9108 29.8771 93.5217 29.8771C93.2105 29.8771 92.6659 29.8771 91.9656 29.9549C92.0434 28.5544 92.1212 27.6986 92.1212 27.3096V25.9091C92.1212 25.0532 92.1212 24.4308 92.0434 24.1974C91.9656 23.8083 91.7322 23.4971 91.421 23.2637C91.1098 23.0303 90.643 22.9525 90.1761 22.9525C89.7871 22.9525 89.3981 23.0303 89.009 23.2637C88.62 23.4971 88.3866 23.6527 88.231 23.9639C88.0754 24.1974 87.9976 24.6642 87.9976 25.2866V26.2981C87.9976 27.7764 88.0754 28.5544 88.0754 28.6322C88.0754 28.9435 88.1532 29.0991 88.1532 29.2547C88.1532 29.3325 88.231 29.3325 88.231 29.4103C88.3088 29.4103 88.3088 29.4881 88.4644 29.4881C88.4644 29.4881 88.7756 29.4881 89.3981 29.4881V29.9549C88.6978 29.9549 88.0754 29.8771 87.5307 29.8771C86.9861 29.9549 86.2081 29.9549 85.1966 29.9549Z" fill="white"/>
<path d="M101.925 28.7101L101.691 29.3326C101.302 29.566 100.991 29.7216 100.835 29.7994C100.602 29.955 100.291 30.0328 99.9016 30.1106C99.5904 30.1884 99.2014 30.2662 98.8124 30.2662C98.1121 30.2662 97.4119 30.1106 96.7894 29.7994C96.167 29.4882 95.7002 29.0213 95.3889 28.3989C95.0777 27.7765 94.9221 27.0762 94.9221 26.2204C94.9221 25.5979 94.9999 24.9755 95.1555 24.5087C95.3111 23.964 95.5446 23.575 95.778 23.3416C95.9336 23.186 96.167 22.9526 96.556 22.7191C96.8672 22.4857 97.2563 22.3301 97.5675 22.1745C98.0343 22.0189 98.5012 21.8633 98.968 21.8633C99.5904 21.8633 100.135 22.0189 100.68 22.2523C101.147 22.5635 101.536 22.9526 101.769 23.4194C102.002 23.8862 102.158 24.4308 102.158 25.0533C102.158 25.2089 102.158 25.3645 102.158 25.5979C101.769 25.6757 101.38 25.7535 101.069 25.7535C100.446 25.8313 99.9016 25.8313 99.2792 25.8313H96.556C96.556 26.6094 96.7116 27.3096 96.945 27.7765C97.1785 28.2433 97.5675 28.6323 98.0343 28.8657C98.5012 29.0992 98.968 29.2548 99.5126 29.2548C99.8238 29.2548 100.213 29.177 100.524 29.0992C100.835 29.0213 101.302 28.7879 101.769 28.4767L101.925 28.7101ZM96.6338 25.2867C96.7894 25.2867 97.1007 25.2867 97.4897 25.3645C98.3455 25.3645 98.8902 25.4423 99.2014 25.4423C99.9794 25.4423 100.446 25.4423 100.68 25.3645C100.68 25.2089 100.68 25.1311 100.68 25.0533C100.68 24.1974 100.524 23.4972 100.135 23.1082C99.746 22.7191 99.2792 22.4857 98.7346 22.4857C98.1121 22.4857 97.5675 22.7191 97.1785 23.186C96.7894 23.575 96.6338 24.2752 96.6338 25.2867Z" fill="white"/>
<path d="M102.314 29.955V29.4882H103.092C103.247 29.4882 103.325 29.4882 103.403 29.4104C103.481 29.4104 103.481 29.3326 103.559 29.2548C103.636 29.177 103.636 28.9435 103.636 28.6323C103.636 28.5545 103.636 27.7765 103.714 26.2204V22.7191C103.714 21.7855 103.714 20.8518 103.636 19.8403C103.636 19.1401 103.559 18.8289 103.559 18.7511C103.559 18.6733 103.481 18.6733 103.403 18.5955C103.325 18.5955 102.936 18.5177 102.236 18.5177V18.0508C103.481 17.8952 104.337 17.6618 104.881 17.4284C104.959 17.4284 105.037 17.3506 105.037 17.3506H105.115V17.4284C105.115 17.4284 105.115 17.5062 105.115 17.584V17.8952C105.115 18.9067 105.037 19.7625 105.037 20.4628V21.7855V26.1426C105.037 27.6209 105.115 28.3989 105.115 28.4767C105.115 28.7879 105.115 28.9435 105.192 29.0992C105.192 29.177 105.27 29.177 105.27 29.2548C105.348 29.2548 105.348 29.3326 105.504 29.3326C105.504 29.3326 105.815 29.3326 106.437 29.3326V29.7994C105.659 29.7216 105.037 29.7216 104.414 29.7216C103.87 29.8772 103.17 29.955 102.314 29.955Z" fill="white"/>
<path d="M107.293 29.955V29.4882H108.071C108.227 29.4882 108.305 29.4882 108.382 29.4104C108.46 29.4104 108.46 29.3326 108.538 29.2548C108.616 29.177 108.616 28.9435 108.616 28.6323C108.616 28.5545 108.616 27.7765 108.694 26.2204V22.7191C108.694 21.7855 108.694 20.8518 108.616 19.8403C108.616 19.1401 108.538 18.8289 108.538 18.7511C108.538 18.6733 108.46 18.6733 108.382 18.5955C108.305 18.5955 107.916 18.5177 107.215 18.5177V18.0508C108.46 17.8952 109.316 17.6618 109.861 17.4284C109.939 17.4284 110.016 17.3506 110.016 17.3506H110.094V17.4284C110.094 17.4284 110.094 17.5062 110.094 17.584V17.8952C110.094 18.9067 110.016 19.7625 110.016 20.4628V21.7855V26.1426C110.016 27.6209 110.094 28.3989 110.094 28.4767C110.094 28.7879 110.094 28.9435 110.172 29.0992C110.172 29.177 110.25 29.177 110.25 29.2548C110.328 29.2548 110.328 29.3326 110.483 29.3326C110.483 29.3326 110.794 29.3326 111.417 29.3326V29.7994C110.639 29.7216 110.016 29.7216 109.394 29.7216C108.849 29.8772 108.149 29.955 107.293 29.955Z" fill="white"/>
<path d="M115.152 18.5954V18.0508C116.085 18.1286 116.941 18.1286 117.719 18.1286C118.497 18.1286 119.275 18.1286 120.053 18.0508V18.5954C119.431 18.5954 118.964 18.6732 118.886 18.6732C118.731 18.751 118.653 18.751 118.575 18.9066C118.497 18.9844 118.419 19.2957 118.419 19.6847C118.419 19.7625 118.419 20.6183 118.419 22.0966V25.2088C118.419 26.3759 118.497 27.2318 118.653 27.543C118.808 27.932 119.042 28.2432 119.353 28.4767C119.586 28.6323 119.975 28.7879 120.364 28.9435C120.831 29.0213 121.298 29.0991 121.843 29.0991C122.465 29.0991 123.01 29.0213 123.477 28.8657C123.944 28.7101 124.333 28.5545 124.566 28.3211C124.799 28.0876 124.955 27.8542 125.111 27.543C125.266 27.2318 125.344 26.9206 125.344 26.4537C125.422 25.9869 125.422 25.3645 125.422 24.6642V22.0966C125.422 21.3186 125.422 20.6183 125.422 19.8403C125.422 19.2957 125.344 18.9844 125.344 18.9066C125.266 18.8288 125.188 18.751 125.033 18.6732C124.877 18.5954 124.488 18.5954 123.866 18.5954V18.0508C124.799 18.1286 125.422 18.1286 125.889 18.1286C126.278 18.1286 126.978 18.1286 127.989 18.0508V18.5954C127.289 18.5954 126.9 18.6732 126.745 18.6732C126.589 18.751 126.511 18.751 126.433 18.9066C126.355 18.9844 126.355 19.2957 126.278 19.6847C126.278 19.7625 126.278 20.6183 126.278 22.0966V24.8976C126.278 26.2981 126.2 27.2318 125.966 27.7764C125.811 28.3211 125.422 28.7879 124.877 29.2547C124.488 29.5659 124.021 29.7993 123.399 29.955C122.776 30.1106 122.154 30.1884 121.376 30.1884C120.52 30.1884 119.742 30.1106 119.12 29.8772C118.497 29.6437 118.03 29.4103 117.719 29.0991C117.408 28.7879 117.174 28.3989 117.019 28.0876C116.863 27.6208 116.785 26.8428 116.785 25.7535V22.0966C116.785 21.3186 116.785 20.6183 116.785 19.8403C116.785 19.2957 116.708 18.9844 116.63 18.9066C116.552 18.8288 116.474 18.751 116.319 18.6732C116.163 18.6732 115.774 18.6732 115.152 18.5954Z" fill="white"/>
<path d="M126.9 29.9549V29.4881H127.678C127.834 29.4881 127.911 29.4881 127.911 29.4103C127.989 29.4103 127.989 29.3325 128.067 29.2547C128.145 29.1769 128.145 28.9435 128.223 28.6322C128.223 28.5544 128.223 27.7764 128.301 26.2203V25.2088C128.301 24.742 128.301 24.2752 128.301 23.7305C128.301 23.4193 128.223 23.1859 128.223 23.1081C128.223 23.0303 128.145 23.0303 128.067 22.9525C127.989 22.9525 127.6 22.8747 126.978 22.9525V22.4856C128.067 22.33 128.923 22.0966 129.468 21.8632C129.545 21.7854 129.623 21.7854 129.701 21.7854C129.779 21.7854 129.779 21.7854 129.779 21.8632C129.779 21.941 129.779 21.941 129.779 22.0188C129.779 22.0188 129.779 22.0966 129.779 22.1744C129.779 22.4078 129.779 22.7969 129.701 23.4193L131.257 22.0966C131.724 21.941 132.113 21.8632 132.58 21.8632C133.047 21.8632 133.436 21.941 133.902 22.1744C134.292 22.33 134.603 22.5635 134.836 22.8747C135.07 23.1859 135.147 23.4971 135.225 23.9639C135.225 24.1974 135.303 24.8976 135.303 26.0647V27.543C135.303 28.2432 135.303 28.7879 135.381 29.0213C135.381 29.1769 135.459 29.3325 135.536 29.3325C135.614 29.4103 135.692 29.4103 135.77 29.4881H136.626V29.9549C136.081 29.9549 135.614 29.8771 135.225 29.8771C134.914 29.8771 134.369 29.8771 133.669 29.9549C133.747 28.5544 133.825 27.6986 133.825 27.3096V25.9091C133.825 25.0532 133.825 24.4308 133.747 24.1974C133.669 23.8083 133.436 23.4971 133.124 23.2637C132.813 23.0303 132.346 22.9525 131.88 22.9525C131.491 22.9525 131.101 23.0303 130.712 23.2637C130.401 23.4971 130.09 23.6527 129.934 23.9639C129.779 24.1974 129.701 24.6642 129.701 25.2866V26.2981C129.701 27.7764 129.779 28.5544 129.779 28.6322C129.779 28.9435 129.857 29.0991 129.857 29.2547C129.857 29.3325 129.934 29.3325 129.934 29.4103C130.012 29.4103 130.012 29.4881 130.168 29.4881C130.168 29.4881 130.479 29.4881 131.101 29.4881V29.9549C130.401 29.9549 129.779 29.8771 129.234 29.8771C128.69 29.9549 127.911 29.9549 126.9 29.9549Z" fill="white"/>
<path d="M137.015 23.1083V22.6414C138.104 22.4858 139.038 22.2524 139.738 21.9412L139.893 22.0968C139.816 23.2639 139.816 24.1975 139.816 24.82V26.3761C139.816 27.8544 139.893 28.6324 139.893 28.7102C139.893 29.0215 139.893 29.1771 139.971 29.3327C139.971 29.4105 140.049 29.4105 140.049 29.4883C140.127 29.4883 140.127 29.5661 140.283 29.5661C140.283 29.5661 140.594 29.5661 141.216 29.5661V30.0329C140.36 30.0329 139.66 29.9551 139.193 29.9551C138.726 29.9551 138.026 29.9551 137.015 30.0329V29.5661H137.793C137.948 29.5661 138.026 29.5661 138.026 29.4883C138.104 29.4883 138.104 29.4105 138.182 29.3327C138.26 29.2549 138.26 29.0215 138.337 28.7102C138.337 28.6324 138.337 27.8544 138.415 26.2983V24.82C138.415 23.9641 138.415 23.4973 138.337 23.3417C138.337 23.2639 138.26 23.1861 138.182 23.1861C138.026 23.1083 137.637 23.1083 137.015 23.1083ZM139.038 18.2065C139.271 18.2065 139.504 18.2843 139.738 18.5178C139.893 18.6734 139.971 18.9068 139.971 19.218C139.971 19.4514 139.893 19.6848 139.66 19.8404C139.427 19.9961 139.271 20.1517 139.038 20.1517C138.804 20.1517 138.571 20.0739 138.337 19.8404C138.104 19.607 138.026 19.4514 138.026 19.218C138.026 18.9846 138.104 18.7512 138.337 18.5178C138.571 18.2843 138.726 18.2065 139.038 18.2065Z" fill="white"/>
<path d="M145.029 30.0328C144.795 29.4882 144.64 29.0991 144.562 28.8657L143.862 27.2318L142.15 23.2638C142.072 23.0303 141.916 22.8747 141.839 22.7969C141.761 22.7191 141.683 22.6413 141.605 22.6413C141.527 22.6413 141.294 22.6413 140.983 22.5635V22.0967C141.916 22.0967 142.617 22.1745 143.006 22.1745C143.473 22.1745 144.095 22.1745 144.951 22.0967V22.5635C144.328 22.5635 144.017 22.6413 143.862 22.7191C143.706 22.7969 143.706 22.8747 143.706 22.9525C143.706 23.1081 143.784 23.4972 144.017 24.0418L145.029 26.6094L145.262 27.154C145.573 27.8543 145.729 28.2433 145.807 28.4767L146.663 26.6094C146.74 26.5316 146.974 25.9091 147.441 24.7421C147.674 24.0418 147.907 23.575 147.985 23.186C147.985 23.1081 147.985 23.0303 147.985 22.9525C147.985 22.8747 147.985 22.7969 147.907 22.7191C147.752 22.6413 147.441 22.5635 146.818 22.5635V22.0967C147.674 22.0967 148.219 22.1745 148.452 22.1745C148.685 22.1745 149.152 22.1745 150.086 22.0967V22.5635C149.775 22.5635 149.541 22.6413 149.386 22.7191C149.308 22.7969 149.152 22.9525 149.075 23.1081C148.997 23.2638 148.685 23.8084 148.141 24.8977L147.363 26.6094C147.207 26.9206 146.74 28.0877 145.885 30.0328H145.029Z" fill="white"/>
<path d="M157.011 28.7101L156.777 29.3326C156.388 29.566 156.077 29.7216 155.921 29.7994C155.688 29.955 155.377 30.0328 154.988 30.1106C154.676 30.1884 154.287 30.2662 153.898 30.2662C153.198 30.2662 152.498 30.1106 151.875 29.7994C151.253 29.4882 150.786 29.0213 150.475 28.3989C150.164 27.7765 150.008 27.0762 150.008 26.2204C150.008 25.5979 150.086 24.9755 150.242 24.5087C150.397 23.964 150.631 23.575 150.864 23.3416C151.02 23.186 151.253 22.9526 151.642 22.7191C151.953 22.4857 152.342 22.3301 152.654 22.1745C153.12 22.0189 153.587 21.8633 154.054 21.8633C154.676 21.8633 155.221 22.0189 155.766 22.2523C156.233 22.5635 156.622 22.9526 156.855 23.4194C157.088 23.8862 157.244 24.4308 157.244 25.0533C157.244 25.2089 157.244 25.3645 157.244 25.5979C156.855 25.6757 156.466 25.7535 156.155 25.7535C155.532 25.8313 154.988 25.8313 154.365 25.8313H151.642C151.642 26.6094 151.798 27.3096 152.031 27.7765C152.265 28.2433 152.654 28.6323 153.12 28.8657C153.587 29.0992 154.054 29.2548 154.599 29.2548C154.91 29.2548 155.299 29.177 155.61 29.0992C155.921 29.0213 156.388 28.7879 156.855 28.4767L157.011 28.7101ZM151.642 25.2867C151.798 25.2867 152.109 25.2867 152.498 25.3645C153.354 25.3645 153.898 25.4423 154.21 25.4423C154.988 25.4423 155.455 25.4423 155.688 25.3645C155.688 25.2089 155.688 25.1311 155.688 25.0533C155.688 24.1974 155.532 23.4972 155.143 23.1082C154.754 22.7191 154.287 22.4857 153.743 22.4857C153.12 22.4857 152.576 22.7191 152.187 23.186C151.798 23.575 151.642 24.2752 151.642 25.2867Z" fill="white"/>
<path d="M157.711 29.9551V29.4883C158.333 29.4883 158.644 29.4883 158.722 29.4883C158.8 29.4883 158.878 29.4104 158.956 29.4104C159.034 29.4104 159.033 29.3326 159.033 29.2548C159.111 29.0992 159.111 28.9436 159.111 28.6324C159.111 27.1541 159.189 26.376 159.189 26.2982V25.2868C159.189 24.8199 159.189 24.3531 159.189 23.8863C159.189 23.5751 159.189 23.3417 159.111 23.2638C159.111 23.186 159.034 23.186 158.956 23.1082C158.878 23.1082 158.489 23.0304 157.866 23.1082V22.6414C158.956 22.4858 159.812 22.2524 160.356 22.019C160.434 21.9412 160.512 21.9412 160.59 21.9412C160.667 21.9412 160.667 21.9412 160.667 22.019C160.667 22.0968 160.667 22.0968 160.667 22.1746C160.667 22.1746 160.667 22.2524 160.667 22.3302C160.667 22.6414 160.59 23.186 160.59 23.8863C160.823 23.5751 161.056 23.3417 161.29 23.0304C161.523 22.7192 161.679 22.5636 161.757 22.4858C161.912 22.3302 162.146 22.2524 162.301 22.1746C162.535 22.0968 162.768 22.019 163.002 22.019C163.235 22.019 163.468 22.0968 163.702 22.1746L163.78 22.3302C163.702 23.1082 163.624 23.7307 163.624 24.2753H163.235C163.079 24.0419 162.924 23.8085 162.768 23.6529C162.613 23.4973 162.379 23.4973 162.146 23.4973C161.679 23.4973 161.368 23.6529 161.056 24.0419C160.745 24.4309 160.59 24.8978 160.59 25.598V26.4539C160.59 26.8429 160.59 27.4653 160.667 28.4768C160.667 28.788 160.667 29.0214 160.745 29.0992C160.823 29.177 160.823 29.2548 160.823 29.3326C160.823 29.4104 160.901 29.4104 160.979 29.4104C161.134 29.4883 161.601 29.4883 162.301 29.5661V30.0329C161.29 30.0329 160.512 29.9551 159.812 29.9551C159.033 29.9551 158.411 29.9551 157.711 29.9551Z" fill="white"/>
<path d="M164.48 27.4652H164.947C164.947 27.7765 164.947 28.0099 165.025 28.2433C165.102 28.4767 165.102 28.6323 165.18 28.7879C165.258 28.9435 165.336 29.0992 165.491 29.2548C165.647 29.4104 165.803 29.4882 165.958 29.566C166.114 29.6438 166.269 29.6438 166.425 29.7216C166.581 29.7216 166.814 29.7216 167.203 29.7216C167.748 29.7216 168.215 29.566 168.604 29.2548C168.993 28.9435 169.148 28.5545 169.148 28.0099C169.148 27.7765 169.07 27.5431 168.993 27.3874C168.915 27.2318 168.681 27.0762 168.526 26.9984C168.292 26.9206 167.826 26.765 167.125 26.6094C166.425 26.4538 165.958 26.2982 165.725 26.2204C165.414 26.0648 165.18 25.987 164.947 25.8313C164.713 25.6757 164.636 25.4423 164.48 25.2089C164.402 24.9755 164.324 24.6643 164.324 24.353C164.324 23.8862 164.402 23.4972 164.636 23.1082C164.869 22.7191 165.258 22.4079 165.725 22.1745C166.192 21.9411 166.736 21.8633 167.359 21.8633C167.748 21.8633 168.137 21.9411 168.604 22.0189C169.07 22.0967 169.459 22.2523 169.771 22.4079C169.771 23.0304 169.693 23.6528 169.693 24.2752H169.226C169.226 23.8862 169.148 23.575 169.148 23.4972C169.148 23.3416 169.07 23.2638 168.993 23.186C168.915 23.1082 168.837 22.9526 168.681 22.8747C168.526 22.7969 168.37 22.6413 168.137 22.5635C167.903 22.4857 167.592 22.4079 167.281 22.4079C166.814 22.4079 166.425 22.5635 166.114 22.8747C165.803 23.186 165.647 23.4972 165.647 23.8862C165.647 24.1196 165.725 24.2752 165.803 24.4308C165.88 24.5865 166.036 24.7421 166.114 24.8199C166.269 24.8977 166.425 24.9755 166.736 25.0533L168.137 25.3645C168.837 25.5201 169.304 25.6757 169.615 25.8313C169.849 25.987 170.082 26.1426 170.238 26.4538C170.393 26.6872 170.471 27.0762 170.471 27.4652C170.471 28.2433 170.16 28.8657 169.537 29.4104C168.915 29.955 168.059 30.2662 167.048 30.2662C166.581 30.2662 165.958 30.1884 165.102 30.0328C164.636 29.955 164.402 29.8772 164.402 29.8772V29.7994C164.402 29.7994 164.402 29.7216 164.402 29.6438C164.48 29.4104 164.48 29.177 164.48 28.9435C164.48 28.7101 164.48 28.1655 164.48 27.4652Z" fill="white"/>
<path d="M171.171 23.1083V22.6414C172.26 22.4858 173.194 22.2524 173.894 21.9412L174.05 22.0968C173.972 23.2639 173.972 24.1975 173.972 24.82V26.3761C173.972 27.8544 174.05 28.6324 174.05 28.7102C174.05 29.0215 174.05 29.1771 174.128 29.3327C174.128 29.4105 174.206 29.4105 174.206 29.4883C174.283 29.4883 174.283 29.5661 174.439 29.5661C174.439 29.5661 174.75 29.5661 175.373 29.5661V30.0329C174.517 30.0329 173.817 29.9551 173.35 29.9551C172.883 29.9551 172.183 29.9551 171.171 30.0329V29.5661H171.949C172.105 29.5661 172.183 29.5661 172.183 29.4883C172.26 29.4883 172.26 29.4105 172.338 29.3327C172.416 29.2549 172.416 29.0215 172.494 28.7102C172.494 28.6324 172.494 27.8544 172.572 26.2983V24.82C172.572 23.9641 172.572 23.4973 172.494 23.3417C172.494 23.2639 172.416 23.1861 172.338 23.1861C172.183 23.1083 171.871 23.1083 171.171 23.1083ZM173.194 18.2065C173.427 18.2065 173.661 18.2843 173.894 18.5178C174.05 18.6734 174.128 18.9068 174.128 19.218C174.128 19.4514 174.05 19.6848 173.817 19.8404C173.583 19.9961 173.427 20.1517 173.194 20.1517C172.961 20.1517 172.727 20.0739 172.494 19.8404C172.26 19.607 172.183 19.4514 172.183 19.218C172.183 18.9846 172.26 18.7512 172.494 18.5178C172.727 18.2843 172.961 18.2065 173.194 18.2065Z" fill="white"/>
<path d="M175.762 23.4193V23.0303C176.306 22.7969 176.773 22.6413 177.084 22.4857C177.084 21.163 177.084 20.3071 177.006 19.9181C177.551 19.6847 178.018 19.5291 178.407 19.2957L178.64 19.4513C178.563 19.9181 178.485 20.9296 178.407 22.4857C178.874 22.4857 179.107 22.4857 179.185 22.4857C179.263 22.4857 179.496 22.4857 180.041 22.4857C180.352 22.4857 180.586 22.4857 180.663 22.4857L180.741 22.5635L180.586 23.3415C180.196 23.3415 179.885 23.3415 179.652 23.3415C179.418 23.3415 178.952 23.3415 178.407 23.3415L178.329 26.7649C178.329 27.6208 178.329 28.0876 178.329 28.2432C178.329 28.3988 178.407 28.5545 178.485 28.6323C178.563 28.7879 178.64 28.8657 178.796 28.9435C178.952 29.0213 179.107 29.0991 179.418 29.0991C179.652 29.0991 179.807 29.0991 179.963 29.0991C180.119 29.0991 180.274 29.0213 180.508 28.9435L180.586 29.2547C180.352 29.4881 180.041 29.6437 179.807 29.8771C179.574 29.955 179.418 30.0328 179.185 30.0328C179.029 30.0328 178.796 30.0328 178.563 30.0328C178.251 30.0328 178.018 30.0328 177.862 29.9549C177.707 29.8771 177.551 29.7993 177.396 29.6437C177.24 29.4881 177.162 29.4103 177.006 29.1769C176.851 28.9435 176.851 28.7101 176.851 28.321C176.851 27.932 176.851 27.543 176.851 27.0762C176.851 26.9984 176.851 26.9206 176.851 26.7649V23.3415H176.54C176.462 23.3415 176.151 23.4193 175.762 23.4193Z" fill="white"/>
<path d="M181.364 34.4676L181.753 33.1449H181.986C182.064 33.2227 182.22 33.3005 182.22 33.3783C182.297 33.4561 182.375 33.4561 182.453 33.5339C182.531 33.5339 182.686 33.6118 182.842 33.6118C182.998 33.6118 183.153 33.6118 183.309 33.5339C183.464 33.4561 183.62 33.3783 183.776 33.1449C183.931 32.9893 184.087 32.6781 184.242 32.2891C184.554 31.6666 184.787 31.122 185.02 30.4996C184.865 30.0327 184.631 29.4103 184.398 28.7878L183.075 25.52C182.686 24.5086 182.375 23.8083 182.142 23.2637C182.064 23.0303 181.908 22.9525 181.83 22.8747C181.753 22.7968 181.441 22.719 181.052 22.719V22.2522C181.753 22.2522 182.453 22.33 183.075 22.33C183.698 22.33 184.398 22.33 184.943 22.2522V22.5634C184.398 22.5634 184.009 22.6412 183.931 22.6412C183.776 22.719 183.698 22.7969 183.698 22.9525C183.698 23.0303 183.776 23.2637 183.853 23.4971C184.087 24.1973 184.242 24.742 184.476 25.2866L185.02 26.6093C185.332 27.3874 185.643 28.0098 185.799 28.4766L186.265 27.4652C186.421 27.0761 186.732 26.2981 187.199 25.2088C187.666 24.1195 187.899 23.4193 187.977 23.1859C187.977 23.1081 187.977 23.0303 187.977 22.9525C187.977 22.8747 187.899 22.7969 187.821 22.719C187.744 22.6412 187.432 22.6412 186.81 22.5634V22.0188C187.432 22.0188 188.055 22.0966 188.522 22.0966C188.989 22.0966 189.533 22.0966 190 22.0188L189.922 22.5634C189.611 22.5634 189.455 22.6412 189.3 22.719C189.144 22.7969 188.911 23.1859 188.6 23.8083C188.288 24.4308 187.666 25.6756 186.81 27.543L184.865 32.0557C184.554 32.7559 184.32 33.3005 184.087 33.6118C183.853 33.923 183.62 34.1564 183.231 34.312C182.92 34.4676 182.531 34.5454 182.22 34.5454C182.064 34.5454 181.908 34.5454 181.753 34.4676C181.675 34.6232 181.519 34.5454 181.364 34.4676Z" fill="white"/>
</svg>
